<svg width="19" height="19" viewBox="0 0 19 19" fill="none" xmlns="http://www.w3.org/2000/svg">
<g clip-path="url(#clip0_11368_26634)">
<path d="M17.5917 16.8529H4.25839C3.66902 16.8529 3.10379 16.6188 2.68704 16.2021C2.2703 15.7853 2.03617 15.2201 2.03617 14.6307V1.29738C2.03617 1.10092 1.95813 0.912514 1.81921 0.773599C1.6803 0.634683 1.49188 0.556641 1.29543 0.556641C1.09897 0.556641 0.910561 0.634683 0.771645 0.773599C0.63273 0.912514 0.554688 1.10092 0.554688 1.29738L0.554688 14.6307C0.555864 15.6126 0.946452 16.554 1.64078 17.2483C2.3351 17.9427 3.27647 18.3332 4.25839 18.3344H17.5917C17.7882 18.3344 17.9766 18.2564 18.1155 18.1175C18.2544 17.9785 18.3325 17.7901 18.3325 17.5937C18.3325 17.3972 18.2544 17.2088 18.1155 17.0699C17.9766 16.931 17.7882 16.8529 17.5917 16.8529Z" fill="#AAAAAA"/>
<path d="M4.99074 15.3717C5.1872 15.3717 5.37561 15.2937 5.51452 15.1548C5.65344 15.0159 5.73148 14.8275 5.73148 14.631V9.44582C5.73148 9.24936 5.65344 9.06095 5.51452 8.92204C5.37561 8.78312 5.1872 8.70508 4.99074 8.70508C4.79428 8.70508 4.60587 8.78312 4.46696 8.92204C4.32804 9.06095 4.25 9.24936 4.25 9.44582V14.631C4.25 14.8275 4.32804 15.0159 4.46696 15.1548C4.60587 15.2937 4.79428 15.3717 4.99074 15.3717Z" fill="#AAAAAA"/>
<path d="M7.96094 7.96535V14.632C7.96094 14.8285 8.03898 15.0169 8.1779 15.1558C8.31681 15.2947 8.50522 15.3728 8.70168 15.3728C8.89813 15.3728 9.08655 15.2947 9.22546 15.1558C9.36438 15.0169 9.44242 14.8285 9.44242 14.632V7.96535C9.44242 7.76889 9.36438 7.58048 9.22546 7.44157C9.08655 7.30265 8.89813 7.22461 8.70168 7.22461C8.50522 7.22461 8.31681 7.30265 8.1779 7.44157C8.03898 7.58048 7.96094 7.76889 7.96094 7.96535Z" fill="#AAAAAA"/>
<path d="M11.6641 10.188V14.6325C11.6641 14.8289 11.7421 15.0173 11.881 15.1562C12.0199 15.2952 12.2083 15.3732 12.4048 15.3732C12.6013 15.3732 12.7897 15.2952 12.9286 15.1562C13.0675 15.0173 13.1455 14.8289 13.1455 14.6325V10.188C13.1455 9.99155 13.0675 9.80314 12.9286 9.66422C12.7897 9.52531 12.6013 9.44727 12.4048 9.44727C12.2083 9.44727 12.0199 9.52531 11.881 9.66422C11.7421 9.80314 11.6641 9.99155 11.6641 10.188Z" fill="#AAAAAA"/>
<path d="M15.3672 7.22512V14.6325C15.3672 14.829 15.4452 15.0174 15.5841 15.1563C15.7231 15.2952 15.9115 15.3733 16.1079 15.3733C16.3044 15.3733 16.4928 15.2952 16.6317 15.1563C16.7706 15.0174 16.8487 14.829 16.8487 14.6325V7.22512C16.8487 7.02866 16.7706 6.84025 16.6317 6.70133C16.4928 6.56242 16.3044 6.48437 16.1079 6.48438C15.9115 6.48437 15.7231 6.56242 15.5841 6.70133C15.4452 6.84025 15.3672 7.02866 15.3672 7.22512Z" fill="#AAAAAA"/>
<path d="M4.99058 7.22592C5.18702 7.22588 5.3754 7.14781 5.51429 7.00889L8.17058 4.35259C8.31177 4.21809 8.49929 4.14307 8.69429 4.14307C8.88928 4.14307 9.0768 4.21809 9.21799 4.35259L10.8269 5.96148C11.2436 6.37808 11.8087 6.61212 12.398 6.61212C12.9872 6.61212 13.5524 6.37808 13.9691 5.96148L18.1069 1.8237C18.2418 1.684 18.3165 1.49688 18.3148 1.30266C18.3131 1.10844 18.2352 0.922657 18.0979 0.785317C17.9605 0.647978 17.7747 0.570075 17.5805 0.568387C17.3863 0.5667 17.1992 0.641362 17.0595 0.776294L12.9217 4.91333C12.7828 5.0522 12.5944 5.13021 12.398 5.13021C12.2016 5.13021 12.0132 5.0522 11.8743 4.91333L10.2654 3.30518C9.84867 2.88858 9.28354 2.65455 8.69429 2.65455C8.10503 2.65455 7.5399 2.88858 7.12317 3.30518L4.46688 5.96148C4.36332 6.06507 4.29279 6.19705 4.26422 6.34071C4.23566 6.48438 4.25033 6.6333 4.30638 6.76863C4.36243 6.90396 4.45735 7.01964 4.57913 7.10104C4.70092 7.18243 4.8441 7.22589 4.99058 7.22592Z" fill="#AAAAAA"/>
</g>
<defs>
<clipPath id="clip0_11368_26634">
<rect width="17.7778" height="17.7778" fill="white" transform="translate(0.550781 0.556641)"/>
</clipPath>
</defs>
</svg>
