<svg width="18" height="14" viewBox="0 0 18 14" fill="none" xmlns="http://www.w3.org/2000/svg">
<path d="M4.80379 12.5791L4.80343 12.5788L0.685906 8.46278C0.438031 8.21483 0.438031 7.81289 0.685906 7.56494C0.933849 7.3172 1.33566 7.31722 1.58358 7.565C1.5836 7.56501 1.58362 7.56503 1.58363 7.56505L5.45834 11.4398L5.81189 11.7933L6.16545 11.4398L16.4164 1.18884C16.4164 1.18882 16.4164 1.1888 16.4164 1.18878C16.6643 0.940998 17.0662 0.940981 17.3141 1.18872C17.5619 1.43665 17.562 1.83852 17.3142 2.08648C17.3141 2.08651 17.3141 2.08654 17.3141 2.08656L6.82032 12.5788L6.82 12.5791C6.55286 12.8467 6.19023 12.997 5.8121 12.9969H5.81168C5.43356 12.997 5.07093 12.8467 4.80379 12.5791Z" fill="white" stroke="white"/>
</svg>
