<svg width="38" height="38" viewBox="0 0 38 38" fill="none" xmlns="http://www.w3.org/2000/svg">
<path d="M25.75 13H23.425C23.0662 11.2552 21.5313 10.0023 19.75 10H18.25C16.4686 10.0023 14.9338 11.2552 14.575 13H12.25C11.8358 13 11.5 13.3358 11.5 13.75C11.5 14.1642 11.8358 14.5 12.25 14.5H13V24.25C13.0025 26.32 14.68 27.9975 16.75 28H21.25C23.32 27.9975 24.9975 26.32 25 24.25V14.5H25.75C26.1642 14.5 26.5 14.1642 26.5 13.75C26.5 13.3358 26.1642 13 25.75 13ZM18.25 22.75C18.25 23.1642 17.9142 23.5 17.5 23.5C17.0858 23.5 16.75 23.1642 16.75 22.75V18.25C16.75 17.8358 17.0858 17.5 17.5 17.5C17.9142 17.5 18.25 17.8358 18.25 18.25V22.75H18.25ZM21.25 22.75C21.25 23.1642 20.9142 23.5 20.5 23.5C20.0858 23.5 19.75 23.1642 19.75 22.75V18.25C19.75 17.8358 20.0858 17.5 20.5 17.5C20.9142 17.5 21.25 17.8358 21.25 18.25V22.75ZM16.1283 13C16.4473 12.1017 17.2968 11.5011 18.25 11.5H19.75C20.7032 11.5011 21.5528 12.1017 21.8718 13H16.1283Z" fill="#A5A1A1"/>
</svg>
