<svg width="134" height="132" viewBox="0 0 134 132" fill="none" xmlns="http://www.w3.org/2000/svg">
<g filter="url(#filter0_d_2508_16852)">
<circle cx="66.9952" cy="61" r="23" fill="#E62448"/>
</g>
<path fill-rule="evenodd" clip-rule="evenodd" d="M59.9139 62.4906V62.3081C59.9407 61.7682 60.1137 61.245 60.4152 60.7926C60.917 60.2492 61.2605 59.5832 61.4096 58.8646C61.4096 58.3092 61.4096 57.7459 61.4581 57.1905C61.7088 54.5166 64.3526 52.668 66.9641 52.668H67.0288C69.6403 52.668 72.2841 54.5166 72.5428 57.1905C72.5913 57.7459 72.5428 58.3092 72.5832 58.8646C72.7344 59.5849 73.0776 60.2529 73.5777 60.8006C73.8814 61.249 74.0547 61.7702 74.079 62.3081V62.4826C74.097 63.208 73.8472 63.9153 73.3756 64.4741C72.7523 65.1275 71.9066 65.534 70.9985 65.6167C68.3357 65.9023 65.6491 65.9023 62.9862 65.6167C62.0792 65.5305 61.2347 65.1246 60.6092 64.4741C60.1449 63.9149 59.8984 63.2118 59.9139 62.4906ZM64.959 68.3778C65.375 68.9 65.986 69.238 66.6567 69.3169C67.3274 69.3958 68.0025 69.2092 68.5326 68.7983C68.6956 68.6768 68.8423 68.5355 68.9692 68.3778" fill="white"/>
<path d="M64.959 68.3778C65.375 68.9 65.986 69.238 66.6567 69.3169C67.3274 69.3958 68.0025 69.2092 68.5326 68.7983C68.6956 68.6768 68.8423 68.5355 68.9692 68.3778M59.9139 62.4906V62.3081C59.9407 61.7682 60.1137 61.245 60.4152 60.7926C60.917 60.2492 61.2605 59.5832 61.4096 58.8646C61.4096 58.3092 61.4096 57.7459 61.4581 57.1905C61.7088 54.5166 64.3526 52.668 66.9641 52.668H67.0288C69.6403 52.668 72.2841 54.5166 72.5428 57.1905C72.5913 57.7459 72.5428 58.3092 72.5832 58.8646C72.7344 59.5849 73.0776 60.2529 73.5777 60.8006C73.8814 61.249 74.0547 61.7702 74.079 62.3081V62.4826C74.097 63.208 73.8472 63.9153 73.3756 64.4741C72.7523 65.1275 71.9066 65.534 70.9985 65.6167C68.3357 65.9023 65.6491 65.9023 62.9862 65.6167C62.0792 65.5305 61.2347 65.1246 60.6092 64.4741C60.1449 63.9149 59.8984 63.2118 59.9139 62.4906Z" stroke="white" stroke-width="2" stroke-linecap="round" stroke-linejoin="round"/>
<circle cx="82.9952" cy="42" r="5" fill="white"/>
<defs>
<filter id="filter0_d_2508_16852" x="-0.00476074" y="-2" width="134" height="134" filterUnits="userSpaceOnUse" color-interpolation-filters="sRGB">
<feFlood flood-opacity="0" result="BackgroundImageFix"/>
<feColorMatrix in="SourceAlpha" type="matrix" values="0 0 0 0 0 0 0 0 0 0 0 0 0 0 0 0 0 0 127 0" result="hardAlpha"/>
<feOffset dy="4"/>
<feGaussianBlur stdDeviation="22"/>
<feComposite in2="hardAlpha" operator="out"/>
<feColorMatrix type="matrix" values="0 0 0 0 0 0 0 0 0 0 0 0 0 0 0 0 0 0 0.06 0"/>
<feBlend mode="normal" in2="BackgroundImageFix" result="effect1_dropShadow_2508_16852"/>
<feBlend mode="normal" in="SourceGraphic" in2="effect1_dropShadow_2508_16852" result="shape"/>
</filter>
</defs>
</svg>
