<svg width="18" height="21" viewBox="0 0 18 21" fill="none" xmlns="http://www.w3.org/2000/svg">
<path d="M0.33682 15.5C1.02612 16.6963 2.55475 17.1073 3.75108 16.418C3.7519 16.4176 3.75268 16.4171 3.7535 16.4166L4.12432 16.2025C4.82432 16.8014 5.62893 17.2658 6.49764 17.5725V18C6.49764 19.3807 7.61694 20.5 8.99764 20.5C10.3783 20.5 11.4976 19.3807 11.4976 18V17.5725C12.3665 17.2654 13.1711 16.8004 13.871 16.2008L14.2435 16.4158C15.4401 17.1062 16.9698 16.6958 17.6601 15.4991C18.3505 14.3025 17.9401 12.7728 16.7435 12.0825L16.3735 11.8691C16.54 10.9629 16.54 10.0338 16.3735 9.12746L16.7435 8.91414C17.9401 8.22379 18.3505 6.6941 17.6601 5.49746C16.9698 4.30086 15.4401 3.89043 14.2435 4.58078L13.8726 4.79496C13.1719 4.1968 12.3668 3.7332 11.4976 3.4275V3C11.4976 1.6193 10.3783 0.5 8.99764 0.5C7.61694 0.5 6.49764 1.6193 6.49764 3V3.4275C5.62881 3.73465 4.82416 4.19965 4.12432 4.79918L3.75182 4.58336C2.55518 3.89297 1.02549 4.3034 0.33514 5.5C-0.355211 6.6966 0.0551792 8.22633 1.25182 8.91668L1.62182 9.13C1.45526 10.0363 1.45526 10.9654 1.62182 11.8717L1.25182 12.085C0.0584996 12.7772 -0.350563 14.3039 0.33682 15.5ZM8.99764 7.16668C10.8386 7.16668 12.331 8.65906 12.331 10.5C12.331 12.3409 10.8386 13.8333 8.99764 13.8333C7.1567 13.8333 5.66432 12.3409 5.66432 10.5C5.66432 8.65906 7.1567 7.16668 8.99764 7.16668Z" fill="white"/>
</svg>
