<svg width="15" height="18" viewBox="0 0 15 18" fill="none" xmlns="http://www.w3.org/2000/svg">
<path d="M9 5.25V0.345C9.69379 0.607001 10.324 1.01348 10.8488 1.5375L13.4618 4.152C13.9864 4.67616 14.3932 5.30617 14.655 6H9.75C9.55109 6 9.36032 5.92098 9.21967 5.78033C9.07902 5.63968 9 5.44891 9 5.25ZM15 7.86375V14.25C14.9988 15.2442 14.6033 16.1973 13.9003 16.9003C13.1973 17.6033 12.2442 17.9988 11.25 18H3.75C2.7558 17.9988 1.80267 17.6033 1.09966 16.9003C0.396661 16.1973 0.00119089 15.2442 0 14.25V3.75C0.00119089 2.7558 0.396661 1.80267 1.09966 1.09966C1.80267 0.396661 2.7558 0.00119089 3.75 0L7.13625 0C7.2585 0 7.37925 0.00975 7.5 0.018V5.25C7.5 5.84674 7.73705 6.41903 8.15901 6.84099C8.58097 7.26295 9.15326 7.5 9.75 7.5H14.982C14.9902 7.62075 15 7.7415 15 7.86375ZM8.5605 12.75L9.90525 11.4052C10.0419 11.2638 10.1175 11.0743 10.1158 10.8777C10.114 10.6811 10.0352 10.4929 9.89611 10.3539C9.75706 10.2148 9.56895 10.136 9.3723 10.1342C9.17565 10.1325 8.9862 10.2081 8.84475 10.3448L7.5 11.6895L6.15525 10.3448C6.0138 10.2081 5.82435 10.1325 5.6277 10.1342C5.43105 10.136 5.24294 10.2148 5.10389 10.3539C4.96483 10.4929 4.88595 10.6811 4.88424 10.8777C4.88254 11.0743 4.95813 11.2638 5.09475 11.4052L6.4395 12.75L5.09475 14.0947C5.02312 14.1639 4.96598 14.2467 4.92667 14.3382C4.88737 14.4297 4.86668 14.5281 4.86581 14.6277C4.86495 14.7273 4.88392 14.826 4.92163 14.9182C4.95934 15.0104 5.01503 15.0941 5.08545 15.1645C5.15587 15.235 5.23961 15.2907 5.33178 15.3284C5.42396 15.3661 5.52272 15.3851 5.6223 15.3842C5.72189 15.3833 5.8203 15.3626 5.9118 15.3233C6.00331 15.284 6.08606 15.2269 6.15525 15.1553L7.5 13.8105L8.84475 15.1553C8.9862 15.2919 9.17565 15.3675 9.3723 15.3658C9.56895 15.364 9.75706 15.2852 9.89611 15.1461C10.0352 15.0071 10.114 14.8189 10.1158 14.6223C10.1175 14.4257 10.0419 14.2362 9.90525 14.0947L8.5605 12.75Z" fill="#A5A1A1"/>
</svg>
