<svg width="18" height="12" viewBox="0 0 18 12" fill="none" xmlns="http://www.w3.org/2000/svg">
<path d="M16.5824 4.58202H3.41244L6.29244 1.70202C6.47942 1.51504 6.58447 1.26145 6.58447 0.997021C6.58447 0.732594 6.47942 0.478998 6.29244 0.292021C6.10547 0.105043 5.85187 0 5.58744 0C5.32302 0 5.06942 0.105043 4.88244 0.292021L0.292444 4.88202C0.19974 4.97453 0.126193 5.08442 0.0760114 5.2054C0.02583 5.32637 0 5.45605 0 5.58702C0 5.71799 0.02583 5.84767 0.0760114 5.96865C0.126193 6.08962 0.19974 6.19951 0.292444 6.29202L4.88244 10.882C4.97503 10.9746 5.08494 11.048 5.2059 11.0981C5.32687 11.1483 5.45651 11.174 5.58744 11.174C5.71837 11.174 5.84802 11.1483 5.96899 11.0981C6.08995 11.048 6.19986 10.9746 6.29244 10.882C6.38503 10.7894 6.45847 10.6795 6.50857 10.5586C6.55868 10.4376 6.58447 10.308 6.58447 10.177C6.58447 10.0461 6.55868 9.91644 6.50857 9.79548C6.45847 9.67451 6.38503 9.5646 6.29244 9.47202L3.41244 6.58202H16.5824C17.1324 6.58202 17.5824 6.13202 17.5824 5.58202C17.5824 5.03202 17.1324 4.58202 16.5824 4.58202Z" fill="#919EAB"/>
</svg>
