<svg width="12" height="12" viewBox="0 0 12 12" fill="none" xmlns="http://www.w3.org/2000/svg">
<path d="M7.23728 5.99999L10.9937 2.24402L10.9937 2.24401C11.3354 1.90224 11.3355 1.3481 10.9937 1.00634V1.00634C10.6519 0.664558 10.0977 0.664548 9.75598 1.00634L9.75598 1.00634L5.99999 4.7627L2.24402 1.00635L2.24401 1.00634C1.90224 0.664559 1.3481 0.664548 1.00633 1.00634C0.664589 1.34811 0.664539 1.90224 1.00634 2.24402L1.00635 2.24402L4.7627 5.99999L1.00634 9.75598L1.00634 9.75599C0.664559 10.0978 0.664548 10.6519 1.00634 10.9937C1.34811 11.3354 1.90224 11.3355 2.24402 10.9937L2.06839 10.818L2.24402 10.9937L5.99999 7.23728L9.75596 10.9937L9.75597 10.9937C10.0977 11.3354 10.6519 11.3355 10.9936 10.9937L7.23728 5.99999ZM7.23728 5.99999L10.9936 9.75598L10.8169 9.93276L10.9936 9.75598C11.3354 10.0977 11.3354 10.6519 10.9937 10.9937L7.23728 5.99999Z" fill="#A5A1A1" stroke="#A5A1A1" stroke-width="0.5"/>
</svg>
