<svg width="15" height="14" viewBox="0 0 15 14" fill="none" xmlns="http://www.w3.org/2000/svg">
<g clip-path="url(#clip0_717_8974)">
<path d="M0.905273 11.0833C0.9062 11.8565 1.21379 12.5978 1.76057 13.1446C2.30735 13.6914 3.04868 13.999 3.82194 13.9999H11.9886C12.7619 13.999 13.5032 13.6914 14.05 13.1446C14.5968 12.5978 14.9043 11.8565 14.9053 11.0833V5.83325H0.905273V11.0833ZM10.8219 8.45825C10.995 8.45825 11.1642 8.50957 11.3081 8.60572C11.452 8.70186 11.5641 8.83852 11.6303 8.9984C11.6966 9.15829 11.7139 9.33422 11.6801 9.50396C11.6464 9.67369 11.563 9.8296 11.4407 9.95197C11.3183 10.0743 11.1624 10.1577 10.9926 10.1914C10.8229 10.2252 10.647 10.2079 10.4871 10.1416C10.3272 10.0754 10.1905 9.96327 10.0944 9.81938C9.99826 9.67548 9.94694 9.50631 9.94694 9.33325C9.94694 9.10119 10.0391 8.87863 10.2032 8.71453C10.3673 8.55044 10.5899 8.45825 10.8219 8.45825ZM7.90527 8.45825C8.07833 8.45825 8.2475 8.50957 8.3914 8.60572C8.53529 8.70186 8.64744 8.83852 8.71367 8.9984C8.77989 9.15829 8.79722 9.33422 8.76346 9.50396C8.7297 9.67369 8.64636 9.8296 8.52399 9.95197C8.40162 10.0743 8.24571 10.1577 8.07598 10.1914C7.90624 10.2252 7.73031 10.2079 7.57043 10.1416C7.41054 10.0754 7.27388 9.96327 7.17774 9.81938C7.08159 9.67548 7.03027 9.50631 7.03027 9.33325C7.03027 9.10119 7.12246 8.87863 7.28655 8.71453C7.45065 8.55044 7.67321 8.45825 7.90527 8.45825ZM4.98861 8.45825C5.16167 8.45825 5.33084 8.50957 5.47473 8.60572C5.61862 8.70186 5.73077 8.83852 5.797 8.9984C5.86323 9.15829 5.88056 9.33422 5.84679 9.50396C5.81303 9.67369 5.7297 9.8296 5.60733 9.95197C5.48495 10.0743 5.32904 10.1577 5.15931 10.1914C4.98958 10.2252 4.81364 10.2079 4.65376 10.1416C4.49387 10.0754 4.35722 9.96327 4.26107 9.81938C4.16492 9.67548 4.11361 9.50631 4.11361 9.33325C4.11361 9.10119 4.20579 8.87863 4.36989 8.71453C4.53398 8.55044 4.75654 8.45825 4.98861 8.45825Z" fill="#919EAB"/>
<path d="M11.9886 1.16667H11.4053V0.583333C11.4053 0.428624 11.3438 0.280251 11.2344 0.170854C11.125 0.0614582 10.9766 0 10.8219 0C10.6672 0 10.5189 0.0614582 10.4095 0.170854C10.3001 0.280251 10.2386 0.428624 10.2386 0.583333V1.16667H5.57194V0.583333C5.57194 0.428624 5.51048 0.280251 5.40109 0.170854C5.29169 0.0614582 5.14332 0 4.98861 0C4.8339 0 4.68552 0.0614582 4.57613 0.170854C4.46673 0.280251 4.40527 0.428624 4.40527 0.583333V1.16667H3.82194C3.04868 1.16759 2.30735 1.47518 1.76057 2.02196C1.21379 2.56874 0.9062 3.31007 0.905273 4.08333L0.905273 4.66667H14.9053V4.08333C14.9043 3.31007 14.5968 2.56874 14.05 2.02196C13.5032 1.47518 12.7619 1.16759 11.9886 1.16667Z" fill="#919EAB"/>
</g>
<defs>
<clipPath id="clip0_717_8974">
<rect width="14" height="14" fill="white" transform="translate(0.905273)"/>
</clipPath>
</defs>
</svg>
